#!OML:ASF F:\VICON\USERDATA\INSTALL\SteveWalk\SteveWalk.ASF
:FULLY-SPECIFIED
:DEGREES
46
root -0.842997 15.7651 -35.4624 17.9819 -2.00363 3.04656
lowerback -16.6687 1.37729 -6.34425
upperback -5.63268 2.91695 -1.86712
thorax 3.08838 1.47143 2.15819
lowerneck -2.85362 -1.37147 0.95579
upperneck 5.32064 -1.92561 0.818916
head 2.15084 -0.918405 0.0431475
rclavicle 1.16786e-014 2.5842e-014
rhumerus -25.7598 7.80329 -84.2646
rradius 57.2519
rwrist -16.8291
rhand -17.4211 -32.5101
rfingers 7.12502
rthumb 8.82897 -62.3054
lclavicle 1.16786e-014 2.5842e-014
lhumerus -70.2457 33.3577 34.3122
lradius 10.5221
lwrist -54.7505
lhand -7.10579 -17.5979
lfingers 7.12502
lthumb 18.7691 11.5166
rfemur -3.68615 -2.86179 14.6415
rtibia 44.606
rfoot 10.2817 19.2527
rtoes -19.349
lfemur -53.2697 -0.934545 -25.7683
ltibia 38.3119
lfoot -4.58694 -3.23862
ltoes -9.03766
47
root -0.827335 15.7765 -35.2196 17.6991 -1.98114 3.48172
lowerback -16.3693 1.27202 -6.88144
upperback -5.54494 2.85213 -2.06624
thorax 3.0083 1.44156 2.22752
lowerneck -2.87119 -1.41122 1.02435
upperneck 5.06098 -1.99275 1.07031
head 2.07111 -0.946023 0.109733
rclavicle 3.11595e-014 -8.34896e-015
rhumerus -26.8699 7.30336 -84.6249
rradius 57.0755
rwrist -17.2471
rhand -16.934 -34.1654
rfingers 7.12502
rthumb 9.29899 -63.9404
lclavicle 3.11595e-014 -8.34896e-015
lhumerus -71.485 34.772 31.3249
lradius 10.4394
lwrist -56.7528
lhand -6.64291 -17.6158
lfingers 7.12502
lthumb 19.2142 11.455
rfemur -5.11649 -2.83001 13.9797
rtibia 48.0558
rfoot 13.0807 19.663
rtoes -19.1616
lfemur -52.4506 -1.15588 -26.3291
ltibia 39.288
lfoot -5.57512 -3.04364
ltoes -8.22102
48
root -0.812136 15.8007 -34.98 17.4714 -2.25524 3.76359
lowerback -15.8052 1.2501 -7.31959
upperback -5.71139 2.83319 -2.18381
thorax 2.51363 1.45501 2.31901
lowerneck -2.78989 -1.39571 0.850084
upperneck 5.0718 -1.98192 1.43376
head 2.0664 -0.934942 0.254252
rclavicle -3.58309e-014 -7.15625e-015
rhumerus -28.0401 6.81892 -84.9451
rradius 56.5082
rwrist -17.0449
rhand -16.2316 -34.4695
rfingers 7.12502
rthumb 9.97676 -64.2131
lclavicle -3.58309e-014 -7.15625e-015
lhumerus -72.5663 35.7653 29.031
lradius 10.3622
lwrist -58.3035
lhand -6.78543 -16.7642
lfingers 7.12502
lthumb 19.0772 12.3202
rfemur -6.84129 -2.55067 13.4677
rtibia 51.4025
rfoot 15.8021 19.0952
rtoes -19.7138
lfemur -51.5846 -1.10564 -26.7617
ltibia 40.0441
lfoot -6.61743 -2.79711
ltoes -6.18828
49
root -0.800922 15.8306 -34.7452 17.3712 -2.64462 3.95996
lowerback -15.9907 1.1937 -7.44614
upperback -5.49047 2.8168 -2.39245
thorax 2.85311 1.42798 2.17958
lowerneck -2.9046 -1.34493 0.883702
upperneck 4.72586 -1.9236 1.66903
head 1.97648 -0.902166 0.324049
rclavicle -1.30266e-014 4.69132e-014
rhumerus -28.4416 6.17766 -85.4641
rradius 55.7918
rwrist -16.2359
rhand -15.6851 -34.8672
rfingers 7.12502
rthumb 10.5039 -64.5848
lclavicle -1.30266e-014 4.69132e-014
lhumerus -73.1536 37.3225 26.9891
lradius 10.1994
lwrist -59.4077
lhand -7.40845 -16.7188
lfingers 7.12502
lthumb 18.478 12.4235
rfemur -8.78069 -2.26045 13.0921
rtibia 54.6793
rfoot 17.9417 17.8581
rtoes -20.2748
lfemur -50.7807 -0.721494 -27.2562
ltibia 40.4986
lfoot -7.69192 -2.64409
ltoes -5.94924
50
root -0.768182 15.8483 -34.5187 17.2951 -2.47012 3.66396
lowerback -15.8591 1.13209 -6.77635
upperback -5.45043 2.62581 -2.4345
thorax 2.88075 1.32743 1.72589
lowerneck -3.03738 -1.26434 0.870626
upperneck 4.67352 -1.82048 1.74861
head 1.98393 -0.848905 0.353187
rclavicle -2.15247e-014 1.03368e-014
rhumerus -29.2407 5.68772 -85.9717
rradius 55.0561
rwrist -15.8446
rhand -15.9003 -35.9059
rfingers 7.12502
rthumb 10.2964 -65.6338
lclavicle -2.15247e-014 1.03368e-014
lhumerus -73.5519 38.2977 25.7668
lradius 10.1288
lwrist -59.7192
lhand -7.87989 -16.5776
lfingers 7.12502
lthumb 18.0244 12.6073
rfemur -10.4579 -2.71593 13.257
rtibia 57.7234
rfoot 19.0969 16.558
rtoes -19.1466
lfemur -49.9507 -0.45314 -27.3551
ltibia 40.8152
lfoot -8.78858 -2.45691
ltoes -9.4832
51
root -0.753776 15.8699 -34.2916 17.2143 -2.90129 4.13242
lowerback -16.051 1.01483 -7.34401
upperback -5.29679 2.58842 -2.5221
thorax 3.12367 1.29882 1.95316
lowerneck -3.1113 -1.25066 0.764056
upperneck 4.51419 -1.79829 1.81461
head 1.94712 -0.839321 0.392353
rclavicle 9.33046e-015 -2.5842e-014
rhumerus -29.9423 5.39782 -86.3395
rradius 54.121
rwrist -15.9084
rhand -16.3061 -36.1607
rfingers 7.12502
rthumb 9.90485 -65.9077
lclavicle 9.33046e-015 -2.5842e-014
lhumerus -74.2682 39.503 24.2916
lradius 10.0816
lwrist -60.8006
lhand -8.40645 -16.6533
lfingers 7.12502
lthumb 17.5177 12.5775
rfemur -12.3121 -2.83777 12.5586
rtibia 60.6414
rfoot 17.775 15.0431
rtoes -21.8008
lfemur -49.0035 0.0562045 -28.281
ltibia 40.9759
lfoot -9.88381 -1.82874
ltoes -14.5887
52
root -0.747615 15.913 -34.0669 17.1724 -3.41457 4.52569
lowerback -16.4452 0.926629 -7.91589
upperback -5.06732 2.62037 -2.61524
thorax 3.55027 1.29372 2.19669
lowerneck -3.2862 -1.24615 0.685474
upperneck 4.57449 -1.79587 1.89136
head 2.00004 -0.836035 0.428779
rclavicle 5.643e-014 -2.22639e-014
rhumerus -30.4343 4.8671 -86.7344
rradius 53.0445
rwrist -15.9361
rhand -16.4638 -35.9989
rfingers 7.12502
rthumb 9.75266 -65.753
lclavicle 5.643e-014 -2.22639e-014
lhumerus -73.8512 40.6781 24.2872
lradius 9.90692
lwrist -61.147
lhand -9.1529 -16.6766
lfingers 7.12502
lthumb 16.7992 12.6167
rfemur -14.2191 -2.86269 12.027
rtibia 63.3053
rfoot 15.9884 13.4505
rtoes -23.0083
lfemur -48.1212 0.62926 -29.0316
ltibia 41.0947
lfoot -10.7302 -1.60546
ltoes -15.0482
53
root -0.732044 15.9564 -33.8462 17.2568 -3.67351 4.59537
lowerback -15.8117 1.00256 -7.69122
upperback -5.61502 2.59504 -2.94462
thorax 2.65863 1.32288 1.68767
lowerneck -3.20541 -1.36621 1.09454
upperneck 5.28465 -1.98581 1.78832
head 2.21346 -0.918741 0.320793
rclavicle 1.2424e-017 2.46493e-014
rhumerus -32.0044 3.86056 -87.5255
rradius 51.9868
rwrist -15.6179
rhand -16.5277 -35.8988
rfingers 7.12502
rthumb 9.69104 -65.6558
lclavicle 1.2424e-017 2.46493e-014
lhumerus -73.6021 40.676 23.8737
lradius 9.97206
lwrist -61.3195
lhand -9.40459 -16.8136
lfingers 7.12502
lthumb 16.5569 12.5001
rfemur -16.2444 -3.10914 11.91
rtibia 65.7715
rfoot 13.6735 11.6665
rtoes -24.0114
lfemur -47.3011 1.00637 -29.3252
ltibia 41.118
lfoot -11.4911 -1.75004
ltoes -12.7595
54
root -0.713767 15.9881 -33.6405 17.2173 -3.44316 4.67282
lowerback -15.3813 0.855821 -7.58876
upperback -5.78553 2.33457 -3.03759
thorax 2.27821 1.209 1.47336
lowerneck -3.24332 -1.41031 1.45955
upperneck 5.56453 -2.0524 1.46518
head 2.30464 -0.950069 0.153574
rclavicle -7.8023e-015 1.43125e-014
rhumerus -32.9494 3.05942 -87.9163
rradius 50.7149
rwrist -15.1124
rhand -16.4651 -35.6485
rfingers 7.12502
rthumb 9.75141 -65.4027
lclavicle -7.8023e-015 1.43125e-014
lhumerus -73.4014 41.2017 23.7039
lradius 10.2143
lwrist -61.6174
lhand -9.27576 -16.8094
lfingers 7.12502
lthumb 16.681 12.4939
rfemur -18.1269 -3.68138 11.9522
rtibia 68.0686
rfoot 11.181 9.9995
rtoes -24.4155
lfemur -46.2809 0.874151 -29.3961
ltibia 41.1017
lfoot -12.2815 -1.95764
ltoes -9.70972
55
root -0.696828 16.0277 -33.4313 17.1629 -3.4027 4.65235
lowerback -15.4375 0.666877 -7.52938
upperback -5.64048 2.08917 -2.941
thorax 2.48041 1.07749 1.50593
lowerneck -3.26091 -1.3014 1.43154
upperneck 5.39611 -1.89759 1.3806
head 2.25143 -0.877759 0.136625
rclavicle -1.0138e-014 -2.14687e-014
rhumerus -33.3818 2.59559 -88.1322
rradius 49.3463
rwrist -15.0095
rhand -16.3994 -35.7489
rfingers 7.12502
rthumb 9.8148 -65.5002
lclavicle -1.0138e-014 -2.14687e-014
lhumerus -71.9866 41.8424 25.4754
lradius 10.3376
lwrist -60.9127
lhand -9.65961 -16.7816
lfingers 7.12502
lthumb 16.3114 12.5523
rfemur -20.0087 -3.93895 12.0753
rtibia 70.1227
rfoot 8.94764 8.79253
rtoes -24.1481
lfemur -45.2496 0.839371 -29.3696
ltibia 41.0184
lfoot -13.0116 -1.948
ltoes -6.97006
56
root -0.686197 16.0628 -33.2269 17.1488 -3.64759 4.65216
lowerback -15.6482 0.544624 -7.52305
upperback -5.46771 1.95687 -2.87264
thorax 2.78473 0.997994 1.55996
lowerneck -3.07768 -1.11355 1.14902
upperneck 5.00531 -1.63367 1.61664
head 2.09463 -0.750623 0.26871
rclavicle -5.57839e-015 7.95139e-016
rhumerus -33.6599 2.29419 -88.4354
rradius 47.8775
rwrist -15.2727
rhand -16.4737 -36.6342
rfingers 7.12502
rthumb 9.74314 -66.3888
lclavicle -5.57839e-015 7.95139e-016
lhumerus -70.1421 42.4256 27.7255
lradius 10.4577
lwrist -60.0238
lhand -10.305 -16.5793
lfingers 7.12502
lthumb 15.6899 12.8046
rfemur -22.0476 -3.87487 12.1288
rtibia 72.0026
rfoot 7.25323 7.68157
rtoes -21.4736
lfemur -44.2604 1.03085 -29.4568
ltibia 40.8021
lfoot -13.6596 -1.63084
ltoes -6.47458
